:version 1.10
:name ASF
:units
  mass 1
  length 1
  angle deg
:documentation
  ASF file generated by Kaydara
:root
  axis xyz
  order  tx ty tz rx ry rz
  position 0 0 0
  orientation 0 0 0
:bonedata
  begin
    id 1
    name LeftUpLegDummy
    direction 1 -2.30186e-007 -8.31532e-007
    length 2.93387
    axis 0 0 0 xyz
  end
  begin
    id 2
    name LeftUpLeg
    direction -1.82929e-007 -1 -1.48925e-009
    length 17.3336
    axis -3.48766 0.00143442 -0.000521554 xyz
    dof rx ry rz
  end
  begin
    id 3
    name LeftLeg
    direction -1.82929e-007 -1 -5.23717e-011
    length 14.9995
    axis 3.68178 -0.00654042 -0.000282425 xyz
    dof rx ry rz
  end
  begin
    id 4
    name LeftFoot
    direction 8.31532e-007 -4.54534e-011 1
    length 6.74421
    axis 1.87234e-006 4.66016e-005 -5.96866e-006 xyz
    dof rx ry rz
  end
  begin
    id 5
    name LeftToes
    direction 0.00818058 -0.00485161 0.999955
    length 3.85048
    axis 1.06247e-005 4.65869e-005 -5.96999e-006 xyz
    dof rx ry rz
  end
  begin
    id 6
    name SpineDummy
    direction -5.8607e-008 0.943407 -0.331637
    length 5.93572
    axis 0 0 0 xyz
  end
  begin
    id 7
    name Spine
    direction -1.04988e-007 0.999988 0.00495137
    length 10.1015
    axis -0.001389 0.000121417 6.61666e-006 xyz
    dof rx ry rz
  end
  begin
    id 8
    name Spine1
    direction 0 0 0
    length 0
    axis -0.001389 0.00012144 6.56766e-006 xyz
    dof rx ry rz
  end
  begin
    id 9
    name RightShoulderDummy
    direction -0.98348 0.17941 -0.0240696
    length 3.59882
    axis -0.001389 0.00012144 6.56766e-006 xyz
  end
  begin
    id 10
    name RightShoulder
    direction -0.978693 0.204882 0.0135597
    length 2.70001
    axis 0.215806 0.000203631 -0.00679732 xyz
    dof rx ry rz
  end
  begin
    id 11
    name RightArm
    direction -1 3.85509e-006 8.31394e-007
    length 10.2459
    axis -23.2009 -0.134239 -0.964098 xyz
    dof rx ry rz
  end
  begin
    id 12
    name RightForeArm
    direction -1 3.85569e-006 8.3129e-007
    length 8.16799
    axis -9.92322 0.0658061 0.17887 xyz
    dof rx ry rz
  end
  begin
    id 13
    name RightHand
    direction -0.992843 -0.0414604 0.112003
    length 5.28593
    axis -0.00960638 0.00330669 -0.185225 xyz
    dof rx ry rz
  end
  begin
    id 14
    name LeftShoulder1Dummy
    direction 0.983523 0.179172 -0.0240748
    length 3.59866
    axis -0.001389 0.00012144 6.56766e-006 xyz
  end
  begin
    id 15
    name LeftShoulder1
    direction 0.978627 0.205195 0.0135605
    length 2.70019
    axis -0.001389 0.00012144 6.57583e-006 xyz
    dof rx ry rz
  end
  begin
    id 16
    name LeftArm
    direction 1 3.51895e-006 -8.60188e-007
    length 10.2459
    axis -23.1894 0.134785 0.967513 xyz
    dof rx ry rz
  end
  begin
    id 17
    name LeftForeArm
    direction 1 3.51921e-006 -7.32029e-007
    length 8.16799
    axis -9.91835 -0.0656957 -0.177789 xyz
    dof rx ry rz
  end
  begin
    id 18
    name LeftHand
    direction 0.992938 -0.0411636 0.11126
    length 5.32135
    axis -0.00960237 -0.00340661 0.185177 xyz
    dof rx ry rz
  end
  begin
    id 19
    name HEadDummy
    direction 1.01974e-006 0.999861 -0.016675
    length 2.99946
    axis -0.001389 0.00012144 6.56766e-006 xyz
  end
  begin
    id 20
    name HEad
    direction -0.0222689 0.980941 0.193023
    length 5.12695
    axis -0.001389 0.00012144 6.56766e-006 xyz
    dof rx ry rz
  end
  begin
    id 21
    name RightUpLegDummy
    direction -1 2.30186e-007 8.31532e-007
    length 2.93387
    axis 0 0 0 xyz
  end
  begin
    id 22
    name RightUpLeg
    direction -1.82966e-007 -1 1.56832e-007
    length 17.3336
    axis -3.4909 -0.000906625 0.00028951 xyz
    dof rx ry rz
  end
  begin
    id 23
    name RightLeg
    direction -1.82786e-007 -1 -1.80317e-007
    length 14.9995
    axis 3.68513 0.0193739 -0.131021 xyz
    dof rx ry rz
  end
  begin
    id 24
    name RightFoot
    direction 8.31721e-007 -4.63324e-011 1
    length 6.74421
    axis 4.81691e-005 -0.120479 -0.188785 xyz
    dof rx ry rz
  end
  begin
    id 25
    name RightToes
    direction 0.00124746 -0.014064 0.9999
    length 3.85082
    axis 0.000481921 0.542163 -0.142575 xyz
    dof rx ry rz
  end
:hierarchy
  begin
    root LeftUpLegDummy SpineDummy RightUpLegDummy
    LeftUpLegDummy LeftUpLeg
    LeftUpLeg LeftLeg
    LeftLeg LeftFoot
    LeftFoot LeftToes
    SpineDummy Spine
    Spine Spine1
    Spine1 RightShoulderDummy LeftShoulder1Dummy HEadDummy
    RightShoulderDummy RightShoulder
    RightShoulder RightArm
    RightArm RightForeArm
    RightForeArm RightHand
    LeftShoulder1Dummy LeftShoulder1
    LeftShoulder1 LeftArm
    LeftArm LeftForeArm
    LeftForeArm LeftHand
    HEadDummy HEad
    RightUpLegDummy RightUpLeg
    RightUpLeg RightLeg
    RightLeg RightFoot
    RightFoot RightToes
  end

:SAMPLES-PER-SECOND 30
:FULLY-SPECIFIED
:DEGREES
45
root  3.45239 34.4621 28.6615 6.46996 7.23371 -0.26924
LeftUpLeg  -13.2697 7.49566 -0.411115
LeftLeg  12.7424 1.68866 0.267772
LeftFoot  0.991736 -0.00430699 -0.00012453
LeftToes  -11.8997 2.60077e-006 -1.42232e-007
Spine  3.06265 2.27428 -3.17975
Spine1  5.55607 4.50885 -5.88637
RightShoulder  0.0427821 9.30499 7.66368
RightArm  -50.6673 15.151 44.8673
RightForeArm  18.2378 37.5085 7.78102
RightHand  0.521078 -2.43835 -23.69
LeftShoulder1  0.108366 -1.48005 -9.16935
LeftArm  -15.1268 1.48068 -65.9858
LeftForeArm  28.9445 -22.5896 -4.19857
LeftHand  0.0421596 1.51574 2.64078
HEad  6.10868 -29.0247 4.80516
RightUpLeg  -13.4997 -7.15972 -6.06506
RightLeg  11.6867 9.64107 1.35172
RightFoot  5.89254 -0.0321113 1.01441
RightToes  -37.1023 -0.195759 -0.297858
46
root  3.44351 34.4624 28.6976 6.50819 6.80969 -0.070755
LeftUpLeg  -13.2078 7.78103 -0.58731
LeftLeg  12.7834 1.81792 0.289702
LeftFoot  1.00434 -0.00501309 0.00541958
LeftToes  -11.9856 2.60077e-006 -1.42232e-007
Spine  3.03394 2.33587 -2.95494
Spine1  5.48569 4.66939 -5.5142
RightShoulder  0.0432514 9.28435 7.62203
RightArm  -50.4314 15.3794 44.4754
RightForeArm  17.9783 37.7921 7.86177
RightHand  0.523002 -2.46468 -23.5264
LeftShoulder1  0.104069 -1.48937 -9.08357
LeftArm  -15.2321 2.46927 -66.315
LeftForeArm  29.2185 -22.1411 -4.10579
LeftHand  0.0439146 1.56639 2.72131
HEad  5.41579 -28.2095 4.33051
RightUpLeg  -13.6395 -6.99439 -6.23065
RightLeg  11.9032 9.83832 1.4168
RightFoot  5.75659 -0.032627 1.0171
RightToes  -37.024 -0.195157 -0.297787
47
root  3.43256 34.4622 28.7477 6.56393 6.3285 0.103739
LeftUpLeg  -13.1685 8.09093 -0.730853
LeftLeg  12.8996 1.97469 0.318898
LeftFoot  0.932123 -0.00560555 0.00930615
LeftToes  -12.0728 2.60077e-006 -1.42232e-007
Spine  2.9443 2.35563 -2.75753
Spine1  5.30789 4.73194 -5.17406
RightShoulder  0.0438636 9.19112 7.55727
RightArm  -50.0688 15.4611 44.4082
RightForeArm  17.9934 38.4847 8.06198
RightHand  0.5418 -2.64678 -22.7087
LeftShoulder1  0.101547 -1.51342 -8.98911
LeftArm  -15.6017 3.69984 -66.5154
LeftForeArm  29.7439 -21.2088 -3.91485
LeftHand  0.0455537 1.68811 2.71019
HEad  4.89993 -27.1223 3.79946
RightUpLeg  -13.7152 -6.69147 -6.3756
RightLeg  11.9565 9.95392 1.44268
RightFoot  5.67989 -0.0332081 1.02092
RightToes  -36.986 -0.194669 -0.297665
48
root  3.42141 34.4601 28.8123 6.57229 5.86376 0.263329
LeftUpLeg  -13.0117 8.26147 -0.861465
LeftLeg  12.9155 2.31724 0.375106
LeftFoot  0.84317 -0.00637307 0.016021
LeftToes  -12.069 2.60077e-006 -1.42232e-007
Spine  2.80571 2.33349 -2.58453
Spine1  5.04063 4.70152 -4.86504
RightShoulder  0.0446051 8.84884 7.28656
RightArm  -48.6255 15.0586 45.0977
RightForeArm  17.4054 40.0622 8.53295
RightHand  0.618726 -3.1136 -22.0579
LeftShoulder1  0.0995302 -1.49838 -8.98449
LeftArm  -16.0691 5.12982 -66.535
LeftForeArm  30.5203 -19.9393 -3.65878
LeftHand  0.0491279 1.84757 2.66609
HEad  4.52903 -25.9533 3.15641
RightUpLeg  -13.7517 -6.50975 -6.52316
RightLeg  12.1004 10.245 1.51055
RightFoot  5.49151 -0.0337251 1.02378
RightToes  -36.9012 -0.194203 -0.2975
49
root  3.39867 34.4534 28.8855 6.54054 5.59989 0.437854
LeftUpLeg  -12.8673 8.21129 -0.965038
LeftLeg  13.0365 2.66507 0.437356
LeftFoot  0.765855 -0.00716712 0.0232553
LeftToes  -12.3568 2.60077e-006 -1.42232e-007
Spine  2.64563 2.21928 -2.45171
Spine1  4.74293 4.48434 -4.62726
RightShoulder  0.0453235 8.44599 6.77959
RightArm  -46.4095 13.709 46.7542
RightForeArm  16.3331 42.733 9.38429
RightHand  0.727475 -3.5387 -22.8156
LeftShoulder1  0.0977928 -1.46233 -9.1537
LeftArm  -16.8826 6.698 -66.2903
LeftForeArm  31.6427 -18.5638 -3.38588
LeftHand  0.0535837 2.05799 2.60388
HEad  4.09088 -24.629 2.4761
RightUpLeg  -13.7172 -6.43762 -6.67193
RightLeg  12.2945 10.4666 1.57887
RightFoot  5.24431 -0.0330448 1.00801
RightToes  -37.0352 -0.193756 -0.297303
50
root  3.36516 34.45 28.9751 6.52192 5.48362 0.497632
LeftUpLeg  -12.7857 8.40599 -0.937421
LeftLeg  13.2571 2.60292 0.437402
LeftFoot  0.591941 -0.00726824 0.0198273
LeftToes  -12.4841 2.60077e-006 -1.42232e-007
Spine  2.49051 2.07609 -2.34716
Spine1  4.46589 4.20851 -4.43912
RightShoulder  0.0461659 8.04391 6.48624
RightArm  -44.7064 11.4972 49.1423
RightForeArm  17.3079 45.9013 10.5002
RightHand  0.724558 -3.27529 -24.5241
LeftShoulder1  0.0957496 -1.4259 -9.44093
LeftArm  -17.7196 8.23391 -65.7935
LeftForeArm  32.6312 -17.2009 -3.11999
LeftHand  0.0623342 2.34201 2.67092
HEad  3.1019 -23.2265 1.99489
RightUpLeg  -13.5337 -6.21805 -6.692
RightLeg  12.2338 10.3833 1.55526
RightFoot  5.06181 -0.0311355 0.973025
RightToes  -36.9102 -0.193327 -0.297082
51
root  3.31633 34.4386 29.0692 6.50227 5.40699 0.466968
LeftUpLeg  -12.7717 8.67797 -0.792625
LeftLeg  13.6136 2.4094 0.420175
LeftFoot  0.308533 -0.00701235 0.0109565
LeftToes  -12.6598 2.60077e-006 -1.42232e-007
Spine  2.32834 1.95289 -2.23299
Spine1  4.17446 3.97019 -4.22344
RightShoulder  0.0470181 7.73062 6.33888
RightArm  -43.2662 8.31059 52.018
RightForeArm  20.329 48.876 11.6767
RightHand  0.662026 -2.7403 -26.7271
LeftShoulder1  0.092815 -1.223 -9.8773
LeftArm  -18.651 9.62029 -65.2599
LeftForeArm  33.6576 -15.7683 -2.84484
LeftHand  0.0717565 2.48492 2.92947
HEad  1.55423 -21.9757 1.71358
RightUpLeg  -13.2812 -5.83346 -6.61141
RightLeg  12.0432 10.1146 1.48128
RightFoot  4.8737 -0.0281605 0.921264
RightToes  -36.8897 -0.192913 -0.296848
52
root  3.25661 34.4214 29.1615 6.47159 5.35703 0.46542
LeftUpLeg  -12.7204 8.59257 -0.638189
LeftLeg  13.9244 2.53835 0.456896
LeftFoot  0.0447238 -0.00694917 0.00518531
LeftToes  -12.9078 2.60077e-006 -1.42232e-007
Spine  2.20566 1.8718 -2.16457
Spine1  3.95842 3.82134 -4.09716
RightShoulder  0.0479186 7.67576 6.68401
RightArm  -41.507 4.2882 54.5854
RightForeArm  22.343 51.1491 12.6783
RightHand  0.42622 -1.62277 -28.9486
LeftShoulder1  0.0878471 -0.958687 -10.2776
LeftArm  -19.9442 10.698 -64.8096
LeftForeArm  34.7765 -14.3068 -2.56815
LeftHand  0.082968 2.71577 3.12113
HEad  -0.209291 -21.0145 1.72429
RightUpLeg  -13.0254 -5.47094 -6.54328
RightLeg  11.8854 9.85431 1.41598
RightFoot  4.61329 -0.0245797 0.859777
RightToes  -36.8824 -0.192514 -0.296608
53
root  3.19178 34.4044 29.2438 6.48639 5.33535 0.480387
LeftUpLeg  -12.6957 8.3604 -0.495845
LeftLeg  14.1594 2.77397 0.511144
LeftFoot  -0.151743 -0.00693728 0.000315098
LeftToes  -13.1605 2.60077e-006 -1.42232e-007
Spine  2.09673 1.88439 -2.11432
Spine1  3.75837 3.86412 -4.00967
RightShoulder  0.0489545 7.71526 7.50741
RightArm  -39.9179 -0.496955 56.8291
RightForeArm  24.405 53.2632 13.7072
RightHand  0.0834482 -0.287685 -31.3024
LeftShoulder1  0.0827464 -0.684467 -10.6491
LeftArm  -21.2756 11.4739 -64.4669
LeftForeArm  35.7721 -12.8612 -2.29821
LeftHand  0.0963523 2.92182 3.39866
HEad  -1.79522 -20.3795 1.81613
RightUpLeg  -12.8366 -5.37638 -6.46474
RightLeg  11.7582 9.82939 1.39031
RightFoot  4.3494 -0.0223551 0.81892
RightToes  -36.8689 -0.192127 -0.296373
54
root  3.12492 34.3918 29.3088 6.55859 5.26544 0.458398
LeftUpLeg  -12.7376 8.41417 -0.343998
LeftLeg  14.3329 2.78455 0.521798
LeftFoot  -0.312659 -0.00693124 -0.00436101
LeftToes  -13.3462 2.60077e-006 -1.42232e-007
Spine  1.97412 1.95866 -2.05401
Spine1  3.5363 4.02257 -3.89623
RightShoulder  0.0499919 7.62165 8.28084
RightArm  -38.6245 -5.261 59.0675
RightForeArm  25.0993 54.2639 14.2321
RightHand  0.0717953 -0.236944 -32.4921
LeftShoulder1  0.0761978 -0.412581 -10.9152
LeftArm  -22.3969 12.1305 -64.2638
LeftForeArm  36.2753 -11.6923 -2.08259
LeftHand  0.112294 3.32735 3.48754
HEad  -3.12961 -20.0403 1.76006
RightUpLeg  -12.7311 -5.30601 -6.33235
RightLeg  11.5877 9.86168 1.36508
RightFoot  4.15778 -0.0211064 0.792704
RightToes  -36.9135 -0.19175 -0.296152
